<?xml version="1.0" encoding="UTF-8"?><svg xmlns="http://www.w3.org/2000/svg" viewBox="0 0 256 256"><defs><style>.c{fill:#efaf22;}.d{fill:#fafafa;}.e{fill:#fde68a;}.f{fill:#e29700;}.g{fill:#18181b;}.h{stroke-linecap:round;stroke-width:8px;}.h,.i{fill:none;stroke:#18181b;stroke-miterlimit:10;}.i{stroke-width:9px;}</style></defs><g id="a"><rect class="d" x="0" y="0" width="256" height="256"/></g><g id="b"><g><g><path class="f" d="m238.41,76.44c8.82,10.01,3.06,25.83,2.52,40.14-.22,5.89-4.78,10.48-7.11,15.58-5.15,11.26-16.08,14.21-26.02,22.08-5.25,4.16-13.1,2.57-19.54,4.81-7.08,2.48-14.01.4-20.73-2.24-5.03-1.98-9.04-3.65-12.56-5.51h-.02c-3.28-6.98-7.26-12.93-14.11-15.26-1.43-.49-2.81-1.09-4.18-1.77-.98-1.24-2-2.45-3.13-3.55-9.35-9.14-9.37-19.3-8.78-31.29,3.15-4.91,5.59-9.93,5.68-16.39.05-3.81,1.13-7.82,1.14-11.73h.01c.99-1.1,2.01-2.2,2.88-3.54,4.72-7.29,13.23-10.93,18.11-17.85,4.45-6.32,11.43-5.96,17.73-7.48,9.7-2.34,19.79-.59,30.4.74,11.76,1.49,17.4,7.5,23.99,13.71,5.87,5.54,8.55,13.69,13.72,19.55Z"/><path class="c" d="m164.57,186.65c1.14,12.33-6.88,20.33-11.59,32.1-2.48,6.22-10.08,8.75-14.55,13.9-4.91,5.66-11.96,7.32-19.1,8.37-10.71,1.57-17.21,2.15-25.36.54-6.03-1.2-11.24-4.74-17.12-6.27-12.65-3.27-18.66-14.19-24.11-24.88-2.07-4.06-2.11-9.15-4.82-13.05-5.26-7.58-1.88-11.52-1.57-17.14.47-8.67,6.04-16.06,6.83-24.49.72-7.69,6.95-10.86,11.66-15.31,3.47-3.28,7.47-5.79,11.79-7.97h0c.99-.03,2.01-.07,3.08-.11,7.21-.29,14.39-1.19,19.87-6.31,1.08-1.01,2.28-1.87,3.55-2.67,5.62-.15,10.68,1.25,16.07,2.54,6.34,1.53,11.72,5.55,17.45,8.37,1.37.68,2.75,1.28,4.18,1.77,6.85,2.33,10.83,8.28,14.11,15.27,2.74,5.87,4.99,12.49,8.04,18.3,2.74,5.21,1.07,11.46,1.58,17.04Z"/><path class="e" d="m130.65,65.92c.69,1.75.93,3.56.92,5.39,0,3.91-1.09,7.92-1.14,11.73-.09,6.46-2.53,11.48-5.68,16.39-2.89,4.52-6.39,8.95-9.22,14.32-2.45,4.64-7.8,6.7-12.39,9.61-.11,0-.22,0-.33.01l-26.17,9.08h0c-9.04.29-15.05-.02-22.19-2.24-5.87-1.82-10.68-5.9-16.37-8.03-12.23-4.59-17.06-16.08-21.36-27.28-1.63-4.26-1.12-9.32-3.41-13.49-4.44-8.09-.66-11.65.24-17.2,1.38-8.58,7.7-15.34,9.37-23.64,1.52-7.58,8.05-10.07,13.2-14,7.94-6.05,17.87-8.52,28.12-11.58,11.36-3.39,18.95-.16,27.48,2.87,7.61,2.69,13.35,9.07,20.45,12.35,12.11,5.6,13.21,22.4,18.49,35.71Z"/><path class="e" d="m102.81,123.37c.11-.01.22-.01.33-.01-1.27.8-2.47,1.66-3.55,2.67-5.48,5.12-12.66,6.02-19.87,6.31-1.07.04-2.09.08-3.08.11l26.17-9.08Z"/></g><g><path class="i" d="m103.14,123.36c5.62-.15,10.68,1.25,16.07,2.54,6.34,1.53,11.72,5.55,17.45,8.37,1.37.68,2.75,1.28,4.18,1.77,6.85,2.33,10.83,8.28,14.11,15.27,2.74,5.87,4.99,12.49,8.04,18.3,2.74,5.21,1.07,11.46,1.58,17.04,1.14,12.33-6.88,20.33-11.59,32.1-2.48,6.22-10.08,8.75-14.55,13.9-4.91,5.66-11.96,7.32-19.1,8.37-10.71,1.57-17.21,2.15-25.36.54-6.03-1.2-11.24-4.74-17.12-6.27-12.65-3.27-18.66-14.19-24.11-24.88-2.07-4.06-2.11-9.15-4.82-13.05-5.26-7.58-1.88-11.52-1.57-17.14.47-8.67,6.04-16.06,6.83-24.49.72-7.69,6.95-10.86,11.66-15.31,3.47-3.28,7.47-5.79,11.79-7.97"/><path class="i" d="m131.58,71.31c.99-1.1,2.01-2.2,2.88-3.54,4.72-7.29,13.23-10.93,18.11-17.85,4.45-6.32,11.43-5.96,17.73-7.48,9.7-2.34,19.79-.59,30.4.74,11.76,1.49,17.4,7.5,23.99,13.71,5.87,5.54,8.55,13.69,13.72,19.55,8.82,10.01,3.06,25.83,2.52,40.14-.22,5.89-4.78,10.48-7.11,15.58-5.15,11.26-16.08,14.21-26.02,22.08-5.25,4.16-13.1,2.57-19.54,4.81-7.08,2.48-14.01.4-20.73-2.24-5.03-1.98-9.04-3.65-12.56-5.51"/><path class="i" d="m136.66,134.27c-.98-1.24-2-2.45-3.13-3.55-9.35-9.14-9.37-19.3-8.78-31.29"/><path class="i" d="m76.63,132.45c-9.04.29-15.05-.02-22.19-2.24-5.87-1.82-10.68-5.9-16.37-8.03-12.23-4.59-17.06-16.08-21.36-27.28-1.63-4.26-1.12-9.32-3.41-13.49-4.44-8.09-.66-11.65.24-17.2,1.38-8.58,7.7-15.34,9.37-23.64,1.52-7.58,8.05-10.07,13.2-14,7.94-6.05,17.87-8.52,28.12-11.58,11.36-3.39,18.95-.16,27.48,2.87,7.61,2.69,13.35,9.07,20.45,12.35,12.11,5.6,13.21,22.4,18.49,35.71.69,1.75.93,3.56.92,5.39,0,3.91-1.09,7.92-1.14,11.73-.09,6.46-2.53,11.48-5.68,16.39-2.89,4.52-6.39,8.95-9.22,14.32-2.45,4.64-7.8,6.7-12.39,9.61-1.27.8-2.47,1.66-3.55,2.67-5.48,5.12-12.66,6.02-19.87,6.31-1.07.04-2.09.08-3.08.11h0Z"/></g></g><path class="h" d="m195.25,103.5c-1.67,5.71-8.22,8.81-14.64,6.94s-10.27-8.02-8.6-13.72"/><path class="h" d="m116.85,180.98c1.39,5.78-2.75,11.73-9.24,13.3s-12.9-1.85-14.29-7.62"/><path class="h" d="m83.57,72.38c.78,5.89-3.97,11.38-10.59,12.25-6.63.87-12.63-3.19-13.41-9.09"/><circle class="g" cx="160.49" cy="81.44" r="6.83"/><circle class="g" cx="213.17" cy="96.81" r="6.83"/><circle class="g" cx="75.73" cy="179.13" r="6.83"/><circle class="g" cx="129.08" cy="166.27" r="6.83"/><circle class="g" cx="42.87" cy="66.21" r="6.83"/><circle class="g" cx="97.28" cy="59.03" r="6.83"/></g></svg>