<?xml version="1.0" encoding="UTF-8"?><svg xmlns="http://www.w3.org/2000/svg" viewBox="0 0 256 256"><defs><style>.c{fill:#fafafa;}.d{fill:#18181b;}.e{fill:#fff0c0;}.e,.f{stroke-width:9px;}.e,.f,.g{stroke:#18181b;stroke-miterlimit:10;}.f{fill:#efaf22;}.g{fill:none;stroke-linecap:round;stroke-width:8px;}</style></defs><g id="a"><rect class="c" x="0" y="0" width="256" height="256"/></g><g id="b"><rect class="f" x="92.93" y="36.36" width="19.32" height="117.49" transform="translate(-13.96 17.74) rotate(-9.26)"/><rect class="f" x="72.9" y="23.84" width="19.32" height="117.49" transform="translate(-12.21 14.36) rotate(-9.26)"/><rect class="f" x="54.32" y="51.17" width="19.32" height="117.49" transform="translate(-35.59 30.79) rotate(-21.32)"/><rect class="f" x="117.3" y="24.01" width="19.32" height="140.02"/><rect class="f" x="134.64" y="39.55" width="19.32" height="103.56" transform="translate(25 -30.86) rotate(13.35)"/><rect class="f" x="169.66" y="62.45" width="19.32" height="84.16" transform="translate(28.99 -38.59) rotate(13.35)"/><rect class="f" x="158.46" y="34.62" width="19.32" height="113.41" transform="translate(25.64 -36.36) rotate(13.35)"/><rect class="f" x="185.59" y="46.71" width="19.32" height="113.41" transform="translate(36.01 -49.75) rotate(15.98)"/><path class="e" d="m128,137.87c17.95,0,32.87-12.99,35.88-30.08.21-1.18,1.4-1.92,2.54-1.57l37.92,11.52c1.03.31,1.63,1.38,1.35,2.42l-26.44,101.26c-.23.88-1.03,1.49-1.94,1.49h-49.31s-49.31,0-49.31,0c-.91,0-1.71-.61-1.94-1.49l-26.44-101.26c-.27-1.04.33-2.11,1.35-2.42l37.92-11.52c1.15-.35,2.34.39,2.54,1.57,3,17.09,17.92,30.08,35.88,30.08Z"/><path class="g" d="m140.11,174.48c0,5.94-5.42,10.76-12.11,10.76s-12.11-4.82-12.11-10.76"/><circle class="d" cx="95.8" cy="166.49" r="6.83"/><circle class="d" cx="160.2" cy="166.49" r="6.83"/></g></svg>