<?xml version="1.0" encoding="UTF-8"?><svg xmlns="http://www.w3.org/2000/svg" viewBox="0 0 256 256"><defs><style>.c{fill:#fafafa;}.d{fill:#18181b;}.e{fill:#fff0c0;}.e,.f,.g,.h{stroke:#f9cf58;}.e,.f,.g,.h,.i,.j{stroke-miterlimit:10;}.e,.f,.g,.h,.j{stroke-width:9px;}.f{fill:#efaf22;}.g{fill:#fde68a;}.h{fill:#e29700;}.i{stroke-linecap:round;stroke-width:8px;}.i,.j{fill:none;stroke:#18181b;}</style></defs><g id="a"><rect class="c" x="0" y="0" width="256" height="256"/></g><g id="b"><rect class="h" x="42.93" y="64.36" width="146.29" height="22.79"/><rect class="f" x="79.8" y="87.15" width="146.29" height="22.79"/><rect class="g" x="146.75" y="109.93" width="92.84" height="22.79"/><rect class="f" x="16.39" y="87.15" width="63.41" height="22.79"/><rect class="g" x="28.91" y="109.93" width="117.83" height="22.79"/><rect class="g" x="42.93" y="132.72" width="170.81" height="22.79"/><rect class="e" x="79.8" y="155.5" width="146.29" height="22.79"/><rect class="e" x="146.75" y="178.29" width="92.84" height="22.79"/><rect class="e" x="16.39" y="155.5" width="63.41" height="22.79"/><rect class="e" x="28.91" y="178.29" width="117.83" height="22.79"/><path class="i" d="m142.49,147.81c0,5.94-5.42,10.76-12.11,10.76s-12.11-4.82-12.11-10.76"/><polygon class="j" points="28.91 201.08 239.59 201.08 239.59 178.29 226.09 178.29 226.09 155.5 213.73 155.5 213.73 132.72 239.59 132.72 239.59 109.93 226.09 109.93 226.09 87.15 189.22 87.15 189.22 64.36 42.93 64.36 42.93 87.15 16.39 87.15 16.39 109.93 28.91 109.93 28.91 132.72 42.93 132.72 42.93 155.5 16.39 155.5 16.39 178.29 28.91 178.29 28.91 201.08"/><circle class="d" cx="95.79" cy="134.44" r="6.83"/><circle class="d" cx="160.19" cy="134.44" r="6.83"/></g></svg>