<?xml version="1.0" encoding="UTF-8"?><svg xmlns="http://www.w3.org/2000/svg" viewBox="0 0 256 256"><defs><style>.c{fill:#fafafa;}.d{fill:#18181b;}.e{fill:#fff0c0;}.e,.f{stroke-width:9px;}.e,.f,.g{stroke:#18181b;stroke-miterlimit:10;}.f{fill:#efaf22;}.g{fill:none;stroke-linecap:round;stroke-width:8px;}</style></defs><g id="a"><rect class="c" x="0" y="0" width="256" height="256"/></g><g id="b"><path class="f" d="m195.13,151.52c0,37.07-30.05,67.13-67.13,67.13s-67.13-30.05-67.13-67.13v-.14s0-66.09,0-66.09v-.14c0-3.04.2-6.04.6-8.98,1.77-13.24,5.22-24.78,15.71-34.88,6.68-6.43,11.03-15.07,22.03-16.8,9.54-1.5,18.54-5.4,28.79-6.47,10.74-1.13,18.22.99,24.65,4.67,13.14,7.52,28.24,15.52,33.38,28.7,4.18,10.69,10,19.5,9.1,33.76v66.37Z"/><path class="g" d="m140.11,80.42c0,5.94-5.42,10.76-12.11,10.76s-12.11-4.82-12.11-10.76"/><path class="e" d="m128,233.22h56.19c.91,0,1.69-.82,1.85-1.96l14.95-105.19c.17-1.18-.39-2.34-1.3-2.69l-26.53-10.31c-1.11-.43-2.26.5-2.41,1.96-2.69,26.87-20.81,47.64-42.76,47.64-21.95,0-40.07-20.78-42.76-47.64-.15-1.46-1.3-2.39-2.41-1.96l-26.53,10.31c-.91.35-1.47,1.51-1.3,2.69l14.95,105.19c.16,1.13.94,1.96,1.85,1.96h56.19Z"/><circle class="d" cx="93.28" cy="70.89" r="6.83"/><circle class="d" cx="161.76" cy="70.89" r="6.83"/></g></svg>