<?xml version="1.0" encoding="UTF-8"?><svg xmlns="http://www.w3.org/2000/svg" viewBox="0 0 256 256"><defs><style>.c{fill:#fafafa;}.d{fill:#18181b;}.e{fill:none;stroke-linecap:round;stroke-miterlimit:10;stroke-width:8px;}.e,.f{stroke:#18181b;}.f{fill:#e29700;stroke-linejoin:round;stroke-width:9px;}</style></defs><g id="a"><rect class="c" x="0" y="0" width="256" height="256"/></g><g id="b"><path class="f" d="m194.21,83.96c31.95,15.5,40.35,36.81,40.35,36.81,0,0,9.67,15.05,3.27,41.66,0,0-6.34,32.71-35.26,45.01,0,0-18.66,9.15-44.02,2.38,0,0-15.94-2.68-25.36-1.6-26.48,3.04-37.36,11.81-69.38,3.37-38.27-10.1-44.36-50.12-44.36-50.12,0,0-3.7-23.65,4.23-54.07,1.21-4.64,1.18-5.17,2.5-8.68l46.93,39.14-42.03-50.83c5.93-11.7,11.42-14.26,11.42-14.26l40.23,55.23-28.67-63.98c5.09-2.94,11.09-4.81,17.53-5.9l23.05,63.92-9.57-65.17c4.45-.11,8.94.02,13.33.33l13.81,61-3.18-59.93c7.61.78,13.99,1.9,18.97,2.98v55.31s12.31-51.94,12.31-51.94c2.89.71,5.86,1.52,8.84,2.4s5.89,1.81,8.81,2.78l-11.45,46.76,24.34-42.16c4.95,1.86,9.46,3.67,13.17,5.2l-16.46,39.92,26.65-35.55Z"/><path class="e" d="m140.25,172.88c0,5.94-5.42,10.76-12.11,10.76s-12.11-4.82-12.11-10.76"/><circle class="d" cx="93.55" cy="159.5" r="6.83"/><circle class="d" cx="157.95" cy="159.5" r="6.83"/></g></svg>