<?xml version="1.0" encoding="UTF-8"?><svg xmlns="http://www.w3.org/2000/svg" viewBox="0 0 256 256"><defs><style>.c{fill:#f9cf58;}.d{fill:#fafafa;}.e{fill:#18181b;}.f{fill:#fff0c0;}.f,.g{stroke-miterlimit:10;}.f,.g,.h{stroke:#18181b;}.f,.h{stroke-width:9px;}.g{stroke-linecap:round;stroke-width:8px;}.g,.h{fill:none;}.h{stroke-linejoin:round;}</style></defs><g id="a"><rect class="d" x="0" y="0" width="256" height="256"/></g><g id="b"><path class="f" d="m228.16,145.6c2.4,8.19,6.62,15.17,5.27,23.12-2.98,17.58,1.67,24.47-10.59,39.3-6.47,7.83-44.54,2.78-53.81,8.46-10.2,6.25-27.8,3.33-39.82,2.39-18.02-1.41-33.56,2.6-46.16-2.39-9.34-3.7-16.78.92-25.74-3.19-19.28-8.82-24.32-.63-28.99-17.38-1.77-6.36.02-41.09-2.86-47.45-5.58-12.33,6.26-19.55,8.96-27.29,4.17-11.93,16.12-20.36,20.7-31.85,4.19-10.49,15.56-12.81,24.95-17.43,14.48-7.12,31.48-8.77,49.14-11.19,19.57-2.68,31.44,3.33,44.92,9.23,12.03,5.27,20.14,15.41,31.19,21.41,18.84,10.24,17.01,34.33,22.84,54.25Z"/><path class="g" d="m140.59,128.65c0,5.94-5.42,10.76-12.11,10.76s-12.11-4.82-12.11-10.76"/><g><g><polygon class="c" points="169.82 57.71 169.82 74.56 127.01 89.71 87.14 71.27 87.14 54.41 127.01 72.86 169.82 57.71"/><polygon class="c" points="169.82 57.71 127.01 72.86 87.14 54.41 127.01 44.53 169.82 57.71"/></g><g><polygon class="h" points="87.14 54.41 127.01 44.53 169.82 57.71 127.01 72.86 87.14 54.41"/><polyline class="h" points="169.82 57.71 169.82 74.56 127.01 89.71 87.14 71.27 87.14 54.41"/></g></g><circle class="e" cx="93.89" cy="115.28" r="6.83"/><circle class="e" cx="158.29" cy="115.28" r="6.83"/></g></svg>