<?xml version="1.0" encoding="UTF-8"?><svg id="b" xmlns="http://www.w3.org/2000/svg" viewBox="0 0 256 256"><path d="M30.03,235.54c-2.43-6.87-4.87-31.06,7.1-46.06,14.89-18.67,9.81-34.95,32.17-43.47,26.5-10.1,39.06-19.93,66.09-17.2,13.77,3.17,23,.72,35.4,3.25,8.12,1.67,20.52,9.46,30.91,18.84,4.95,4.47,12.59,3.27,19.23,11.71,4.88,6.19,9.34,14.79,12.32,27.54,2.27,9.72,12.88,29.26,6.77,46.11-.41,1.11-.9,2.17-2.08,2.17-10.74.14-60.09.7-102.92-.36-42.83.76-92.17-.12-102.92-.34-1.19-.01-1.67-1.07-2.07-2.19Z" style="fill:#fff0c0; stroke-width:0px;"/><path d="M135.39,128.81c-27.03-2.73-39.59,7.1-66.09,17.2-22.36,8.52-17.28,24.8-32.17,43.47-11.97,15-9.53,39.2-7.1,46.06.4,1.11.88,2.17,2.07,2.19,10.75.22,60.09,1.1,102.92.34,42.83,1.06,92.18.5,102.92.36,1.19,0,1.68-1.06,2.08-2.17,6.11-16.85-4.5-36.39-6.77-46.11-2.98-12.75-7.44-21.36-12.32-27.54-6.64-8.44-14.28-7.23-19.23-11.71-10.39-9.38-22.79-17.17-30.91-18.84-12.39-2.53-21.63-.08-35.4-3.25Z" style="fill:none; stroke:#18181b; stroke-miterlimit:10; stroke-width:9px;"/><line x1="56.37" y1="226.63" x2="38.06" y2="226.63" style="fill:none; stroke:#f9cf58; stroke-linecap:round; stroke-miterlimit:10; stroke-width:8px;"/><line x1="58.07" y1="217.32" x2="38.08" y2="215.73" style="fill:none; stroke:#f9cf58; stroke-linecap:round; stroke-miterlimit:10; stroke-width:8px;"/><line x1="113.13" y1="155.22" x2="109.33" y2="141.02" style="fill:none; stroke:#f9cf58; stroke-linecap:round; stroke-miterlimit:10; stroke-width:8px;"/><line x1="123.18" y1="153.55" x2="120.74" y2="139.13" style="fill:none; stroke:#f9cf58; stroke-linecap:round; stroke-miterlimit:10; stroke-width:8px;"/><line x1="83.55" y1="150.64" x2="93.22" y2="164.84" style="fill:none; stroke:#f9cf58; stroke-linecap:round; stroke-miterlimit:10; stroke-width:8px;"/><line x1="75.16" y1="156.63" x2="85.66" y2="171.14" style="fill:none; stroke:#f9cf58; stroke-linecap:round; stroke-miterlimit:10; stroke-width:8px;"/><line x1="56.68" y1="176.94" x2="67.71" y2="185.21" style="fill:none; stroke:#f9cf58; stroke-linecap:round; stroke-miterlimit:10; stroke-width:8px;"/><line x1="50.89" y1="186.1" x2="63.74" y2="193.69" style="fill:none; stroke:#f9cf58; stroke-linecap:round; stroke-miterlimit:10; stroke-width:8px;"/><line x1="210.69" y1="226.63" x2="228.99" y2="226.63" style="fill:none; stroke:#f9cf58; stroke-linecap:round; stroke-miterlimit:10; stroke-width:8px;"/><line x1="208.98" y1="217.32" x2="228.97" y2="215.73" style="fill:none; stroke:#f9cf58; stroke-linecap:round; stroke-miterlimit:10; stroke-width:8px;"/><line x1="153.93" y1="155.22" x2="157.72" y2="141.02" style="fill:none; stroke:#f9cf58; stroke-linecap:round; stroke-miterlimit:10; stroke-width:8px;"/><line x1="143.87" y1="153.55" x2="146.31" y2="139.13" style="fill:none; stroke:#f9cf58; stroke-linecap:round; stroke-miterlimit:10; stroke-width:8px;"/><line x1="183.5" y1="150.64" x2="173.83" y2="164.84" style="fill:none; stroke:#f9cf58; stroke-linecap:round; stroke-miterlimit:10; stroke-width:8px;"/><line x1="191.9" y1="156.63" x2="181.4" y2="171.14" style="fill:none; stroke:#f9cf58; stroke-linecap:round; stroke-miterlimit:10; stroke-width:8px;"/><line x1="210.38" y1="176.94" x2="199.35" y2="185.21" style="fill:none; stroke:#f9cf58; stroke-linecap:round; stroke-miterlimit:10; stroke-width:8px;"/><line x1="216.16" y1="186.1" x2="203.32" y2="193.69" style="fill:none; stroke:#f9cf58; stroke-linecap:round; stroke-miterlimit:10; stroke-width:8px;"/><path d="M149.46,214.9c0,5.94-5.42,10.76-12.11,10.76s-12.11-4.82-12.11-10.76" style="fill:none; stroke:#18181b; stroke-linecap:round; stroke-miterlimit:10; stroke-width:8px;"/><circle cx="102.76" cy="201.53" r="6.83" style="fill:#18181b; stroke-width:0px;"/><circle cx="167.16" cy="201.53" r="6.83" style="fill:#18181b; stroke-width:0px;"/><path d="M21.02,165.57c-3.88-6.18-11.52-29.26-3.13-46.5,10.46-21.47,1.97-36.25,21.92-49.45,23.66-15.63,33.78-27.96,60.76-31.19,14.12.09,22.6-4.32,35.25-4.54,8.28-.15,22.07,4.75,34.26,11.64,5.81,3.28,13,.45,21.33,7.22,6.1,4.98,12.33,12.41,18.02,24.21,4.34,8.98,18.97,25.75,16.68,43.52-.15,1.17-.4,2.3-1.56,2.57-10.46,2.48-58.49,13.77-100.52,22.09-41.64,10.08-89.98,19.98-100.52,22.11-1.16.23-1.86-.68-2.49-1.68Z" style="fill:#fff0c0; stroke-width:0px;"/><path d="M100.57,38.44c-26.98,3.23-37.1,15.57-60.76,31.19-19.95,13.19-11.45,27.98-21.92,49.45-8.4,17.24-.76,40.32,3.13,46.5.63,1,1.33,1.92,2.49,1.68,10.54-2.13,58.87-12.03,100.52-22.11,42.03-8.32,90.06-19.6,100.52-22.09,1.15-.28,1.4-1.4,1.56-2.57,2.29-17.77-12.34-34.54-16.68-43.52-5.69-11.79-11.92-19.23-18.02-24.21-8.33-6.77-15.51-3.94-21.33-7.22-12.19-6.9-25.99-11.8-34.26-11.64-12.65.22-21.14,4.64-35.25,4.54Z" style="fill:none; stroke:#18181b; stroke-miterlimit:10; stroke-width:9px;"/><line x1="44.77" y1="151.13" x2="26.91" y2="155.12" style="fill:none; stroke:#f9cf58; stroke-linecap:round; stroke-miterlimit:10; stroke-width:8px;"/><line x1="44.41" y1="141.68" x2="24.55" y2="144.48" style="fill:none; stroke:#f9cf58; stroke-linecap:round; stroke-miterlimit:10; stroke-width:8px;"/><line x1="84.59" y1="69.06" x2="77.8" y2="56.03" style="fill:none; stroke:#f9cf58; stroke-linecap:round; stroke-miterlimit:10; stroke-width:8px;"/><line x1="94.05" y1="65.24" x2="88.52" y2="51.7" style="fill:none; stroke:#f9cf58; stroke-linecap:round; stroke-miterlimit:10; stroke-width:8px;"/><line x1="54.73" y1="71.04" x2="67.27" y2="82.79" style="fill:none; stroke:#f9cf58; stroke-linecap:round; stroke-miterlimit:10; stroke-width:8px;"/><line x1="47.85" y1="78.72" x2="61.26" y2="90.59" style="fill:none; stroke:#f9cf58; stroke-linecap:round; stroke-miterlimit:10; stroke-width:8px;"/><line x1="34.24" y1="102.57" x2="46.81" y2="108.24" style="fill:none; stroke:#f9cf58; stroke-linecap:round; stroke-miterlimit:10; stroke-width:8px;"/><line x1="30.59" y1="112.77" x2="44.78" y2="117.38" style="fill:none; stroke:#f9cf58; stroke-linecap:round; stroke-miterlimit:10; stroke-width:8px;"/><line x1="195.38" y1="117.48" x2="213.25" y2="113.49" style="fill:none; stroke:#f9cf58; stroke-linecap:round; stroke-miterlimit:10; stroke-width:8px;"/><line x1="191.69" y1="108.77" x2="210.85" y2="102.86" style="fill:none; stroke:#f9cf58; stroke-linecap:round; stroke-miterlimit:10; stroke-width:8px;"/><line x1="124.42" y1="60.17" x2="125.02" y2="45.48" style="fill:none; stroke:#f9cf58; stroke-linecap:round; stroke-miterlimit:10; stroke-width:8px;"/><line x1="114.24" y1="60.73" x2="113.47" y2="46.12" style="fill:none; stroke:#f9cf58; stroke-linecap:round; stroke-miterlimit:10; stroke-width:8px;"/><line x1="152.28" y1="49.25" x2="145.94" y2="65.21" style="fill:none; stroke:#f9cf58; stroke-linecap:round; stroke-miterlimit:10; stroke-width:8px;"/><line x1="161.78" y1="53.26" x2="154.69" y2="69.72" style="fill:none; stroke:#f9cf58; stroke-linecap:round; stroke-miterlimit:10; stroke-width:8px;"/><line x1="184.24" y1="69.06" x2="175.28" y2="79.54" style="fill:none; stroke:#f9cf58; stroke-linecap:round; stroke-miterlimit:10; stroke-width:8px;"/><line x1="191.89" y1="76.73" x2="181.01" y2="86.95" style="fill:none; stroke:#f9cf58; stroke-linecap:round; stroke-miterlimit:10; stroke-width:8px;"/><path d="M133.07,119.39c1.3,5.8-2.94,11.68-9.47,13.14s-12.86-2.06-14.16-7.86" style="fill:none; stroke:#18181b; stroke-linecap:round; stroke-miterlimit:10; stroke-width:8px;"/><circle cx="84.58" cy="116.52" r="6.83" style="fill:#18181b; stroke-width:0px;"/><circle cx="147.43" cy="102.48" r="6.83" style="fill:#18181b; stroke-width:0px;"/><path d="M133.27,33.89c-.75,1.95-3.6,8.44,6.98,14.56,10.83,6.26,48.47,24.37,60.6,13.09,19.67-18.3-8.22-63.22-20.08-42.16-8.17,14.52-39.03-1.7-47.49,14.52Z" style="fill:#fff; stroke:#18181b; stroke-miterlimit:10; stroke-width:9px;"/></svg>