<?xml version="1.0" encoding="UTF-8"?><svg xmlns="http://www.w3.org/2000/svg" viewBox="0 0 256 256"><defs><style>.c{fill:#fafafa;}.d{fill:#fde68a;}.e{fill:#18181b;}.f{stroke-width:8px;}.f,.g{stroke-linecap:round;}.f,.g,.h{fill:none;stroke-miterlimit:10;}.f,.h{stroke:#18181b;}.g{stroke:#f9cf58;}.g,.h{stroke-width:9px;}</style></defs><g id="a"><rect class="c" x="0" y="0" width="256" height="256"/></g><g id="b"><g><g><path class="d" d="m56.3,125.38c19.79-.19,50.39-.32,78.1.26,20.66-.43,42.92-.47,61.11-.38,17.46.08,31.17.28,36.15.37,1.12.02,2,.94,1.96,2.06-.25,7.04-1.45,30.67-6.55,43.55-8.31,20.98-10.5,30.21-30.27,41.19-29.6,16.44-19.01,11.87-62.4,16.46-43.38-4.59-32.8-.02-62.4-16.46-19.77-10.98-21.96-20.21-30.27-41.19-5.1-12.88-6.3-36.51-6.55-43.55-.04-1.12.84-2.04,1.96-2.06,3.2-.06,10.04-.16,19.16-.25Z"/><path class="d" d="m223.19,25.35c1.3,6.92,5.28,30.24,3.12,43.93-3.52,22.29-3.65,31.77-20.54,46.8-4.27,3.8-7.55,6.77-10.26,9.14v.04c-18.19-.09-40.45-.05-61.11.38-27.71-.58-58.31-.45-78.1-.26-3.32-4.27-6.61-9.37-10.85-15.62-7.79-11.46-14.12-34.25-15.91-41.07-.28-1.08.38-2.18,1.47-2.44,9.87-2.38,55.22-13.22,94.91-21.23,39.31-9.67,84.96-19.2,94.91-21.25,1.1-.23,2.16.48,2.36,1.58Z"/></g><g><path class="h" d="m56.3,125.38c-9.12.09-15.96.19-19.16.25-1.12.02-2,.94-1.96,2.06.25,7.04,1.45,30.67,6.55,43.55,8.31,20.98,10.5,30.21,30.27,41.19,29.6,16.44,19.02,11.87,62.4,16.46,43.39-4.59,32.8-.02,62.4-16.46,19.77-10.98,21.96-20.21,30.27-41.19,5.1-12.88,6.3-36.51,6.55-43.55.04-1.12-.84-2.04-1.96-2.06-4.98-.09-18.69-.29-36.15-.37-18.19-.09-40.45-.05-61.11.38-27.71-.58-58.31-.45-78.1-.26Z"/><path class="h" d="m195.51,125.22c2.71-2.37,5.99-5.34,10.26-9.14,16.89-15.03,17.02-24.51,20.54-46.8,2.16-13.69-1.82-37.01-3.12-43.93-.2-1.1-1.26-1.81-2.36-1.58-9.95,2.05-55.6,11.58-94.91,21.25-39.69,8.01-85.04,18.85-94.91,21.23-1.09.26-1.75,1.36-1.47,2.44,1.79,6.82,8.12,29.61,15.91,41.07,4.24,6.25,7.53,11.35,10.85,15.62.01.03.04.06.06.09"/></g></g><path class="f" d="m146.51,163.58c0,5.94-5.42,10.76-12.11,10.76s-12.11-4.82-12.11-10.76"/><path class="f" d="m146.02,79.4c1.3,5.8-2.94,11.69-9.46,13.15-6.52,1.46-12.87-2.06-14.16-7.86"/><line class="g" x1="61.06" y1="190.19" x2="68.38" y2="198.02"/><polyline class="g" points="186.63 205.9 197.17 200.19 204.97 194.1 211.73 183.73 217.32 168.57"/><line class="g" x1="213.89" y1="35.6" x2="214.95" y2="43.06"/><line class="g" x1="53.66" y1="100.39" x2="59.38" y2="111.1"/><path class="g" d="m187.57,115.98l12.08-7.91s6.81-7.47,8.13-9.44"/><polyline class="g" points="76.01 203.05 86.56 208.93 95.37 212.55 109.03 215.35"/><polyline class="g" points="125.75 217 139.92 217 153.92 215.35 165.12 213.54"/><circle class="e" cx="102.2" cy="155.59" r="6.83"/><circle class="e" cx="166.6" cy="155.59" r="6.83"/><circle class="e" cx="101.04" cy="81.28" r="6.83"/><circle class="e" cx="163.88" cy="67.21" r="6.83"/></g></svg>