<?xml version="1.0" encoding="UTF-8"?><svg xmlns="http://www.w3.org/2000/svg" viewBox="0 0 256 256"><defs><style>.c{fill:#fff0c0;}.d{fill:#fafafa;}.e{fill:#e29700;}.f{fill:#18181b;}.g{stroke-width:8px;}.g,.h{stroke-linecap:round;}.g,.h,.i{fill:none;stroke-miterlimit:10;}.g,.i{stroke:#18181b;}.h{stroke:#efaf22;}.h,.i{stroke-width:9px;}</style></defs><g id="a"><rect class="d" width="256" height="256"/></g><g id="b"><g><g><path class="e" d="m227.12,156.85c.65,27.39-14.28,43.69-14.28,43.69-19.65,22.81-76.11,22.25-76.11,22.25-22.54.88-51.47-3.4-51.47-3.4-31.51-5.51-44.07-21.88-44.07-21.88,0,0-12.1-10.64-13.15-35.27,0,0-1.08-12.37,4.01-25.94h0c2.82-7.53,7.53-15.42,15.37-21.77,0,0,9.71-24.93,33.65-24.93,22.35.36,16.85,4.55,34.82-7.74,19.82-13.56,36.37,47.09,59.6,28.38,24.54-19.76,45.65,9.09,45.65,9.09,0,0,5.31,9.21,5.98,37.52Z"/><path class="c" d="m184.06,72.07c44.79-19.8,37.08,47.26,37.08,47.26,0,0-21.11-28.85-45.65-9.09-23.23,18.71-39.78-41.94-59.6-28.38-17.97,12.29-12.47,8.1-34.82,7.74-23.94,0-33.65,24.93-33.65,24.93-7.84,6.35-12.55,14.24-15.37,21.76-.14-.81-8.04-47.16,2.46-54.38,11.59-7.96,37.35-3.83,40.19-20.39,3.95-23.05,28.33-4.61,46.11-6.58,17.79-1.98,22.4,9.88,33.6,23.61,11.2,13.74,17.22-.99,29.65-6.48Z"/></g><g><path class="i" d="m32.05,136.29c2.82-7.52,7.53-15.41,15.37-21.76,0,0,9.71-24.93,33.65-24.93,22.35.36,16.85,4.55,34.82-7.74,19.82-13.56,36.37,47.09,59.6,28.38,24.54-19.76,45.65,9.09,45.65,9.09,0,0,5.31,9.21,5.98,37.52.65,27.39-14.28,43.69-14.28,43.69-19.65,22.81-76.11,22.25-76.11,22.25-22.54.88-51.47-3.4-51.47-3.4-31.51-5.51-44.07-21.88-44.07-21.88,0,0-12.1-10.64-13.15-35.27,0,0-1.08-12.37,4.01-25.94"/><path class="i" d="m221.14,119.33s7.71-67.06-37.08-47.26c-12.43,5.49-18.45,20.22-29.65,6.48-11.2-13.73-15.81-25.59-33.6-23.61-17.78,1.97-42.16-16.47-46.11,6.58-2.84,16.56-28.6,12.43-40.19,20.39-10.5,7.22-2.6,53.57-2.46,54.38h0"/></g></g><path class="g" d="m140.11,168.4c0,5.94-5.42,10.76-12.11,10.76s-12.11-4.82-12.11-10.76"/><line class="h" x1="90.28" y1="62.48" x2="94.78" y2="69.39"/><line class="h" x1="192.67" y1="86.79" x2="203.14" y2="83.71"/><line class="h" x1="125.35" y1="69.39" x2="128" y2="67.24"/><line class="h" x1="168.45" y1="97.53" x2="171.1" y2="95.37"/><line class="h" x1="46.05" y1="94.68" x2="42.41" y2="91.98"/><circle class="f" cx="83.46" cy="159.07" r="6.83"/><circle class="f" cx="172.55" cy="159.07" r="6.83"/></g></svg>