<?xml version="1.0" encoding="UTF-8"?><svg xmlns="http://www.w3.org/2000/svg" viewBox="0 0 256 256"><defs><style>.c{fill:#fafafa;}.d{fill:#18181b;}.e{fill:#fde68a;}.e,.f{stroke:#18181b;}.e,.f,.g{stroke-miterlimit:10;}.e,.g{stroke-width:9px;}.f{stroke-width:8px;}.f,.g{fill:none;stroke-linecap:round;}.g{stroke:#efaf22;}</style></defs><g id="a"><rect class="c" x="0" y="0" width="256" height="256"/></g><g id="b"><path class="e" d="m241.09,91.86c1.23,6.51-.31,11.64.23,19.13.29,3.93-1.71,7.67-3.15,11.28-4.32,10.82-10.31,21.74-22.08,26.33-6.07,2.36-11.79,5.91-18.57,7.19-4.78.91-9.57,1.45-14.17.82-15.61-2.12-26.67-6.58-35.39-16.59-3.71-4.25-6.01-7.05-8.31-11.14-2.84-5.05-4.92-10.65-6.06-16.66l-.02-.11-6.61-34.89-.02-.11c-.46-2.44-.75-4.87-.89-7.28-.59-10.87.42-20.64,7.29-30.31,4.37-6.17,6.55-13.74,15.09-16.79,7.42-2.65,14.03-7.13,22.07-9.55,8.43-2.53,14.74-1.97,20.44,0,11.67,4.03,24.96,8.14,31.08,17.91,4.97,7.93,10.97,14.09,12.4,25.65l.02.11,3.96,20.93,2.65,13.97.02.11Z"/><path class="f" d="m194.31,71.78c1.11,5.84-3.32,11.58-9.89,12.83s-12.79-2.48-13.9-8.32"/><line class="g" x1="227.68" y1="111.13" x2="224.08" y2="123.95"/><path class="e" d="m125.83,144.34c0,6.62-2.48,11.38-3.33,18.84-.45,3.92-3.1,7.22-5.19,10.49-6.26,9.83-14.18,19.45-26.6,21.76-6.4,1.19-12.68,3.61-19.59,3.61-4.87,0-9.67-.36-14.08-1.83-14.94-4.99-24.98-11.42-31.68-22.89-2.85-4.87-4.59-8.05-6.09-12.5-1.85-5.49-2.86-11.38-2.86-17.49v-.11s0-35.51,0-35.51v-.11c0-2.48.17-4.92.48-7.32,1.44-10.79,4.26-20.2,12.8-28.42,5.45-5.24,8.99-12.29,17.95-13.69,7.78-1.22,15.11-4.4,23.46-5.27,8.75-.92,14.85.81,20.09,3.81,10.71,6.13,23.01,12.65,27.21,23.39,3.4,8.71,8.15,15.89,7.41,27.51v35.74Z"/><path class="f" d="m83.6,115.91c0,5.94-5.42,10.76-12.11,10.76s-12.11-4.82-12.11-10.76"/><line class="g" x1="33.88" y1="164.05" x2="41.22" y2="176.48"/><path class="e" d="m191.91,206.84c-2.09,6.28-5.94,10.01-9.11,16.83-1.66,3.58-5.22,5.87-8.24,8.32-9.04,7.35-19.59,13.98-32.11,12.25-6.45-.89-13.18-.58-19.72-2.76-4.62-1.54-9.06-3.39-12.78-6.18-12.6-9.45-20.09-18.72-22.84-31.72-1.17-5.52-1.81-9.08-1.83-13.78-.02-5.8.88-11.7,2.81-17.5l.04-.11,11.21-33.7.04-.11c.78-2.35,1.71-4.62,2.77-6.79,4.77-9.78,10.42-17.82,21.12-22.93,6.82-3.26,12.41-8.82,21.36-7.32,7.77,1.3,15.73.6,23.93,2.4,8.59,1.89,13.83,5.45,17.86,9.95,8.23,9.2,17.84,19.27,18.43,30.78.48,9.34,2.72,17.65-1.65,28.45l-.04.11-6.72,20.21-4.49,13.49-.04.11Z"/><path class="f" d="m160.82,166.54c-1.88,5.64-8.54,8.5-14.88,6.39s-9.97-8.39-8.09-14.03"/><line class="g" x1="125.65" y1="229.83" x2="133.8" y2="232.6"/><line class="g" x1="125.65" y1="229.83" x2="129.72" y2="231.22"/><line class="g" x1="144.85" y1="231.83" x2="161.34" y2="228.74"/><circle class="d" cx="152.4" cy="64.66" r="6.83"/><circle class="d" cx="206.26" cy="54.45" r="6.83"/><circle class="d" cx="43.75" cy="101.1" r="6.83"/><circle class="d" cx="98.58" cy="101.1" r="6.83"/><circle class="d" cx="127.68" cy="139.91" r="6.83"/><circle class="d" cx="179.7" cy="157.21" r="6.83"/></g></svg>