<?xml version="1.0" encoding="UTF-8"?><svg xmlns="http://www.w3.org/2000/svg" viewBox="0 0 256 256"><defs><style>.c{fill:#fafafa;}.d{fill:#18181b;}.e{fill:#fff0c0;}.e,.f{stroke-width:9px;}.e,.f,.g{stroke:#18181b;stroke-miterlimit:10;}.f{fill:#efaf22;}.g{fill:none;stroke-linecap:round;stroke-width:8px;}</style></defs><g id="a"><rect class="c" width="256" height="256"/></g><g id="b"><path class="f" d="m91.29,146.78c18.45,0,33.46-15.01,33.46-33.46s-15.01-33.46-33.46-33.46-33.46,15.01-33.46,33.46h16c0-9.64,7.82-17.46,17.46-17.46s17.46,7.82,17.46,17.46-7.82,17.46-17.46,17.46v16Z"/><path class="f" d="m60,85.25c-13.44-12.64-14.09-33.85-1.45-47.29,12.64-13.44,33.85-14.09,47.29-1.45,13.44,12.64,14.09,33.85,1.45,47.29l-11.66-10.96c6.61-7.02,6.27-18.07-.76-24.68s-18.07-6.27-24.68.76c-6.61,7.02-6.27,18.07.76,24.68l-10.96,11.66Z"/><path class="f" d="m154.9,28.17c-18.03,3.89-29.55,21.72-25.66,39.75,3.89,18.03,21.72,29.55,39.75,25.66s29.55-21.72,25.66-39.75l-15.64,3.37c2.03,9.43-3.96,18.71-13.39,20.74s-18.71-3.96-20.74-13.39c-2.03-9.43,3.96-18.71,13.39-20.74l-3.37-15.64Z"/><path class="f" d="m122.43,143.7c18.45,0,33.46-15.01,33.46-33.46s-15.01-33.46-33.46-33.46-33.46,15.01-33.46,33.46h16c0-9.64,7.82-17.46,17.46-17.46s17.46,7.82,17.46,17.46-7.82,17.46-17.46,17.46v16Z"/><path class="f" d="m179.13,56.34c-18.45,0-33.46,15.01-33.46,33.46,0,18.45,15.01,33.46,33.46,33.46,18.45,0,33.46-15.01,33.46-33.46h-16c0,9.64-7.82,17.46-17.46,17.46s-17.46-7.82-17.46-17.46,7.82-17.46,17.46-17.46v-16Z"/><path class="f" d="m74.38,56.34c18.45,0,33.46,15.01,33.46,33.46s-15.01,33.46-33.46,33.46c-18.45,0-33.46-15.01-33.46-33.46h16c0,9.64,7.82,17.46,17.46,17.46s17.46-7.82,17.46-17.46c0-9.64-7.82-17.46-17.46-17.46v-16Z"/><path class="e" d="m128,137.87c17.95,0,32.87-12.99,35.88-30.08.21-1.18,1.4-1.92,2.54-1.57l37.92,11.52c1.03.31,1.63,1.38,1.35,2.42l-26.44,101.26c-.23.88-1.03,1.49-1.94,1.49h-49.31s-49.31,0-49.31,0c-.91,0-1.71-.61-1.94-1.49l-26.44-101.26c-.27-1.04.33-2.11,1.35-2.42l37.92-11.52c1.15-.35,2.34.39,2.54,1.57,3,17.09,17.92,30.08,35.88,30.08Z"/><path class="g" d="m140.11,174.48c0,5.94-5.42,10.76-12.11,10.76s-12.11-4.82-12.11-10.76"/><circle class="d" cx="95.8" cy="166.49" r="6.83"/><circle class="d" cx="160.2" cy="166.49" r="6.83"/></g></svg>