<?xml version="1.0" encoding="UTF-8"?><svg xmlns="http://www.w3.org/2000/svg" viewBox="0 0 256 256"><defs><style>.c{fill:#fafafa;}.d{fill:#18181b;}.e{fill:#fde68a;}.e,.f{stroke:#18181b;}.e,.f,.g{stroke-miterlimit:10;}.e,.g{stroke-width:9px;}.f{stroke-width:8px;}.f,.g{fill:none;stroke-linecap:round;}.g{stroke:#efaf22;}</style></defs><g id="a"><rect class="c" width="256" height="256"/></g><g id="b"><path class="e" d="m227.68,130.31c2.4,9.55-2.76,19.06-4.11,28.32-2.98,20.49-19.16,30.34-31.42,47.63-6.47,9.13-19.82,10.26-29.1,16.88-10.2,7.28-22.3,7.21-34.32,6.11-18.02-1.64-28.82-3.24-41.42-9.06-9.34-4.31-16.42-12.11-25.38-16.89-19.28-10.28-24.77-30.38-29.43-49.89-1.77-7.41.17-15.69-2.71-23.1-5.58-14.37,1.45-19.45,4.15-28.46,4.17-13.91,16.12-23.73,20.7-37.12,4.19-12.23,15.56-14.93,24.95-20.32,14.48-8.3,31.48-10.22,49.14-13.05,19.57-3.13,31.44,3.88,44.92,10.76,12.03,6.14,20.14,17.96,31.19,24.95,18.84,11.93,17.01,40.01,22.84,63.23Z"/><path class="f" d="m140.11,119.18c0,5.94-5.42,10.76-12.11,10.76s-12.11-4.82-12.11-10.76"/><line class="g" x1="44.27" y1="131.39" x2="41.71" y2="123.09"/><line class="g" x1="179.51" y1="195.8" x2="191.33" y2="182.05"/><line class="g" x1="199.89" y1="170.56" x2="202.53" y2="168.4"/><circle class="d" cx="95.8" cy="111.19" r="6.83"/><circle class="d" cx="160.2" cy="111.19" r="6.83"/></g></svg>